<?xml version="1.0" encoding="utf-8"?>
<!-- Generator: Adobe Illustrator 26.0.3, SVG Export Plug-In . SVG Version: 6.00 Build 0)  -->
<svg version="1.1" id="Слой_1" xmlns="http://www.w3.org/2000/svg" xmlns:xlink="http://www.w3.org/1999/xlink" x="0px" y="0px"
	 viewBox="0 0 998.6 385" style="enable-background:new 0 0 998.6 385;" xml:space="preserve">
<style type="text/css">
	.st0{fill:#1C75BC;}
	.st1{fill:#FFFFFF;}
	.st2{fill:#FFFFFF;stroke:#1C75BC;stroke-width:7;stroke-miterlimit:10;}
	.st3{fill:none;stroke:#FFFFFF;stroke-width:7;stroke-miterlimit:10;}
	.st4{fill:none;stroke:#1C75BC;stroke-width:7;stroke-miterlimit:10;}
	.st5{fill:#1C75BC;stroke:#FFFFFF;stroke-width:7;stroke-miterlimit:10;}
	.st6{fill:#FFFFFF;stroke:#FFFFFF;stroke-width:7;stroke-miterlimit:10;}
	.st7{fill:#1C75BC;stroke:#FFFFFF;stroke-width:5;stroke-miterlimit:10;}
	.st8{fill:#FFFFFF;stroke:#1C75BC;stroke-width:5.9588;stroke-miterlimit:10;}
</style>
<g>
	<g>
		<path class="st1" d="M197.6,281c48-0.1,84.2,15.1,102.1,24c24.1-25.2,38.9-59.4,38.9-97c0-77.6-62.9-140.4-140.4-140.4
			c-77.6,0-140.4,62.9-140.4,140.4c0,37.6,14.8,71.8,38.9,97C114.5,296,150.2,281.1,197.6,281z"/>
		<g>
			<polygon class="st0" points="179.8,258.9 180.6,47.2 288.7,258.9 			"/>
			<path class="st1" d="M183,57.5l101.6,198.9H182.3L183,57.5 M178.1,36.9L178,57.5l-0.7,198.9l0,5h5h102.2h8.2l-3.7-7.3L187.5,55.2
				L178.1,36.9L178.1,36.9z"/>
		</g>
		<polygon class="st0" points="169.6,256.4 170.1,152.3 124.5,256.4 		"/>
		<path class="st7" d="M273.6,303.9H173c-24.3,0-47-7.9-61.1-21.3l-14.6-13.8h192.7L273.6,303.9z"/>
	</g>
	<g>
		<g>
			<path class="st1" d="M444.9,262.8c-0.8,0-1.4-0.6-1.4-1.4v-70.3h-39.3v70.3c0,0.8-0.6,1.4-1.4,1.4H393c-0.8,0-1.4-0.6-1.4-1.4
				V181c0-0.8,0.6-1.4,1.4-1.4h61.7c0.8,0,1.4,0.6,1.4,1.4v80.4c0,0.8-0.6,1.4-1.4,1.4H444.9z"/>
			<path class="st1" d="M454.7,181v80.4h-9.7v-71.7h-42.2v71.7H393V181H454.7 M454.7,178.1H393c-1.6,0-2.9,1.3-2.9,2.9v80.4
				c0,1.6,1.3,2.9,2.9,2.9h9.8c1.6,0,2.9-1.3,2.9-2.9v-68.9h36.5v68.9c0,1.6,1.3,2.9,2.9,2.9h9.7c1.6,0,2.9-1.3,2.9-2.9V181
				C457.5,179.4,456.3,178.1,454.7,178.1L454.7,178.1z"/>
		</g>
		<g>
			<path class="st1" d="M585,262.8c-0.8,0-1.4-0.6-1.4-1.4V215H557v46.4c0,0.8-0.6,1.4-1.4,1.4h-9.3c-0.8,0-1.4-0.6-1.4-1.4v-56
				c0-0.8,0.6-1.4,1.4-1.4h48c0.8,0,1.4,0.6,1.4,1.4v56c0,0.8-0.6,1.4-1.4,1.4H585z"/>
			<path class="st1" d="M594.3,205.4v56H585v-47.8h-29.5v47.8h-9.3v-56H594.3 M594.3,202.5h-48c-1.6,0-2.9,1.3-2.9,2.9v56
				c0,1.6,1.3,2.9,2.9,2.9h9.3c1.6,0,2.9-1.3,2.9-2.9v-44.9h23.7v44.9c0,1.6,1.3,2.9,2.9,2.9h9.3c1.6,0,2.9-1.3,2.9-2.9v-56
				C597.2,203.8,595.9,202.5,594.3,202.5L594.3,202.5z"/>
		</g>
		<g>
			<path class="st1" d="M610.8,264.2c-3,0-5.6-0.6-7.7-1.7c-0.5-0.2-0.8-0.7-0.8-1.3V253c0-0.5,0.3-1,0.7-1.2
				c0.2-0.1,0.5-0.2,0.7-0.2c0.2,0,0.5,0.1,0.7,0.2c1.4,0.8,2.9,1.2,4.3,1.2c2,0,2.5-0.8,2.6-1.1c0.3-0.5,0.9-2,0.9-6.2v-40.2
				c0-0.8,0.6-1.4,1.4-1.4H657c0.8,0,1.4,0.6,1.4,1.4v56c0,0.8-0.6,1.4-1.4,1.4h-9.2c-0.8,0-1.4-0.6-1.4-1.4v-46.6h-22.2v32
				c0,6.3-1.1,10.7-3.4,13.5C618.6,262.9,615.3,264.2,610.8,264.2z"/>
			<path class="st1" d="M657,205.4v56h-9.2v-48h-25.1v33.4c0,5.9-1,10.1-3.1,12.6c-1.9,2.3-4.8,3.4-8.9,3.4c-2.8,0-5.1-0.5-7-1.5
				V253c1.6,0.9,3.3,1.4,5,1.4c1.9,0,3.1-0.6,3.9-1.7c0.7-1.2,1.1-3.5,1.1-7v-40.2H657 M657,202.5h-43.2c-1.6,0-2.9,1.3-2.9,2.9
				v40.2c0,4.3-0.6,5.4-0.6,5.5c-0.2,0.3-1.1,0.4-1.4,0.4c-1.2,0-2.4-0.3-3.6-1c-0.4-0.2-0.9-0.4-1.4-0.4c-0.5,0-1,0.1-1.5,0.4
				c-0.9,0.5-1.4,1.5-1.4,2.5v8.3c0,1.1,0.6,2,1.5,2.5c2.3,1.2,5.1,1.8,8.4,1.8c4.9,0,8.7-1.5,11.1-4.4c2.5-3,3.7-7.7,3.7-14.4
				v-30.5h19.3v45.1c0,1.6,1.3,2.9,2.9,2.9h9.2c1.6,0,2.9-1.3,2.9-2.9v-56C659.9,203.8,658.6,202.5,657,202.5L657,202.5z"/>
		</g>
		<g>
			<path class="st1" d="M700.1,265c-9.1,0-16.5-3.1-21.9-9.3c-5.2-5.8-7.8-13.3-7.8-22.3c0-9,2.8-16.6,8.4-22.5c5.6-6,12.8-9,21.5-9
				c7.9,0,14.2,2.8,18.8,8.3v-4.7c0-0.8,0.6-1.4,1.4-1.4h9.1c0.8,0,1.4,0.6,1.4,1.4v55.9c0,0.8-0.6,1.4-1.4,1.4h-9.1
				c-0.8,0-1.4-0.6-1.4-1.4v-5C714,262.1,707.7,265,700.1,265z M701.4,212.9c-5.3,0-9.6,1.8-13,5.6c-3.4,3.8-5.2,8.8-5.2,14.8
				c0,5.9,1.7,10.8,5,14.6c3.4,3.9,7.6,5.8,12.8,5.8c5.8,0,10.2-1.8,13.3-5.4c3.1-3.7,4.7-8.8,4.7-15.4c0-5.7-1.6-10.4-4.9-14.2
				C710.7,214.8,706.6,212.9,701.4,212.9z"/>
			<path class="st1" d="M700.2,203.3c9,0,15.8,3.8,20.2,11.4l0.1-0.1v-9.1h9.1v55.9h-9.1v-9.3c-5,7.7-11.8,11.5-20.3,11.5
				c-8.7,0-15.7-2.9-20.9-8.8c-5-5.6-7.5-12.7-7.5-21.4c0-8.7,2.7-15.8,8-21.5C685.1,206.1,691.9,203.3,700.2,203.3 M701,255.2
				c6.2,0,11-2,14.4-5.9c3.4-4,5-9.4,5-16.3c0-6-1.8-11.1-5.3-15.1c-3.6-4.2-8.2-6.3-13.8-6.3c-5.7,0-10.4,2-14.1,6.1
				c-3.7,4.1-5.5,9.3-5.5,15.8c0,6.3,1.8,11.4,5.4,15.5C690.7,253.1,695.3,255.2,701,255.2 M700.2,200.4c-9.1,0-16.6,3.2-22.5,9.5
				c-5.8,6.2-8.8,14.1-8.8,23.5c0,9.3,2.8,17.2,8.2,23.3c5.8,6.5,13.5,9.8,23,9.8c6.8,0,12.7-2.2,17.5-6.5v1.4
				c0,1.6,1.3,2.9,2.9,2.9h9.1c1.6,0,2.9-1.3,2.9-2.9v-55.9c0-1.6-1.3-2.9-2.9-2.9h-9.1c-1.6,0-2.9,1.3-2.9,2.9v1.1
				C713,202.5,707.2,200.4,700.2,200.4L700.2,200.4z M701,252.3c-4.8,0-8.7-1.7-11.7-5.3c-3.1-3.6-4.7-8-4.7-13.6
				c0-5.8,1.6-10.3,4.8-13.8c3.2-3.5,7.1-5.2,11.9-5.2c4.8,0,8.6,1.7,11.6,5.3c3.1,3.5,4.6,7.9,4.6,13.3c0,6.2-1.5,11.1-4.4,14.5
				C710.4,250.7,706.4,252.3,701,252.3L701,252.3z"/>
		</g>
		<g>
			<path class="st1" d="M748.4,262.8c-0.8,0-1.4-0.6-1.4-1.4v-56c0-0.8,0.6-1.4,1.4-1.4h21.4c7.5,0,13,2,16.3,5.9
				c2.2,2.7,3.3,6,3.3,9.9c0,5.2-1.9,9.1-5.5,11.8c6.1,2.4,9.2,7.2,9.2,14.4c0,11.2-7.3,16.9-21.8,16.9H748.4z M770.3,252.4
				c9,0,10.1-4.1,10.1-7.3c0-2.1-0.8-3.8-2.4-5.2c-1.9-1.7-4.8-2.6-8.5-2.6H759v15H770.3z M767.9,227.4c8.5,0,9.5-3.9,9.5-6.8
				c0-2.7-0.9-6.2-8.8-6.2H759v13.1H767.9z"/>
			<path class="st1" d="M769.8,205.4c7.1,0,12.2,1.8,15.2,5.4c2,2.4,3,5.4,3,9c0,5.8-2.6,9.9-7.7,12.2c7.5,1.7,11.3,6.4,11.3,14
				c0,10.3-6.8,15.5-20.3,15.5h-23v-56H769.8 M757.6,228.9h10.2c7.3,0,10.9-2.8,10.9-8.3c0-5.1-3.4-7.7-10.2-7.7h-11V228.9
				 M757.6,253.8h12.7c7.7,0,11.5-2.9,11.5-8.7c0-2.5-1-4.6-2.9-6.3c-2.2-2-5.4-3-9.4-3h-11.9V253.8 M769.8,202.5h-21.4
				c-1.6,0-2.9,1.3-2.9,2.9v56c0,1.6,1.3,2.9,2.9,2.9h23c19.2,0,23.2-10,23.2-18.4c0-6.8-2.7-11.8-8-14.7c2.9-2.9,4.3-6.7,4.3-11.4
				c0-4.3-1.2-7.9-3.7-10.8C783.6,204.7,777.8,202.5,769.8,202.5L769.8,202.5z M760.5,215.8h8.1c7.3,0,7.3,3.1,7.3,4.8
				c0,1.7,0,5.4-8.1,5.4h-7.4V215.8L760.5,215.8z M760.5,238.8h9c3.3,0,5.9,0.7,7.5,2.2c1.3,1.2,1.9,2.5,1.9,4.1
				c0,1.9,0,5.8-8.7,5.8h-9.8V238.8L760.5,238.8z"/>
		</g>
		<g>
			<path class="st1" d="M833.3,264.9c-9.3,0-17.1-3-23.2-9c-6.1-6-9.1-13.5-9.1-22.5c0-8.9,3.1-16.5,9.1-22.5c6-6,13.8-9,23.2-9
				c9.3,0,17.1,3,23.1,9c6,6,9.1,13.5,9.1,22.5c0,8.9-3.1,16.5-9.1,22.5C850.4,261.8,842.6,264.9,833.3,264.9z M833.3,213.2
				c-5.4,0-9.9,1.7-13.7,5.3c-4,3.8-5.9,8.6-5.9,14.8c0,6.2,1.9,11,5.9,14.8c3.8,3.6,8.2,5.3,13.7,5.3c5.4,0,9.9-1.7,13.6-5.3
				c4-3.8,5.9-8.7,5.9-14.8c0-6.2-1.9-11-5.9-14.8C843.2,214.9,838.7,213.2,833.3,213.2z"/>
			<path class="st1" d="M833.3,203.3c9,0,16.4,2.9,22.1,8.6c5.8,5.7,8.7,12.9,8.7,21.5c0,8.6-2.9,15.7-8.7,21.5
				c-5.8,5.7-13.2,8.6-22.1,8.6c-9,0-16.4-2.9-22.2-8.6c-5.8-5.7-8.7-12.9-8.7-21.5c0-8.6,2.9-15.7,8.7-21.5
				C817,206.2,824.3,203.3,833.3,203.3 M833.3,255c5.8,0,10.6-1.9,14.6-5.7c4.2-4,6.3-9.3,6.3-15.9s-2.1-11.8-6.3-15.9
				c-4-3.8-8.8-5.7-14.6-5.7c-5.8,0-10.6,1.9-14.6,5.7c-4.3,4-6.4,9.3-6.4,15.9s2.1,11.8,6.4,15.9C822.7,253.1,827.6,255,833.3,255
				 M833.3,200.5c-9.7,0-17.9,3.2-24.2,9.4c-6.3,6.3-9.5,14.2-9.5,23.5c0,9.3,3.2,17.3,9.5,23.5c6.3,6.2,14.5,9.4,24.2,9.4
				c9.7,0,17.9-3.2,24.2-9.4c6.3-6.3,9.5-14.2,9.5-23.5c0-9.3-3.2-17.3-9.5-23.5C851.2,203.6,843,200.5,833.3,200.5L833.3,200.5z
				 M833.3,252.1c-5,0-9.2-1.6-12.7-4.9c-3.7-3.5-5.5-8-5.5-13.8c0-5.8,1.8-10.3,5.5-13.8c3.5-3.3,7.6-5,12.7-5
				c5,0,9.1,1.6,12.6,4.9c3.7,3.5,5.5,8,5.5,13.8c0,5.8-1.8,10.3-5.4,13.8C842.5,250.5,838.4,252.1,833.3,252.1L833.3,252.1z"/>
		</g>
		<g>
			<path class="st1" d="M500.6,264.9c-9.3,0-17.1-3-23.2-9c-6.1-6-9.1-13.5-9.1-22.5c0-8.9,3.1-16.5,9.1-22.5c6-6,13.8-9,23.2-9
				c9.3,0,17.1,3,23.1,9c6,6,9.1,13.5,9.1,22.5c0,8.9-3.1,16.5-9.1,22.5C517.7,261.8,509.9,264.9,500.6,264.9z M500.6,213.2
				c-5.4,0-9.9,1.7-13.7,5.3c-4,3.8-5.9,8.6-5.9,14.8c0,6.2,1.9,11,5.9,14.8c3.8,3.6,8.2,5.3,13.7,5.3c5.4,0,9.9-1.7,13.6-5.3
				c4-3.8,5.9-8.7,5.9-14.8c0-6.2-1.9-11-5.9-14.8C510.5,214.9,506,213.2,500.6,213.2z"/>
			<path class="st1" d="M500.6,203.3c9,0,16.4,2.9,22.1,8.6c5.8,5.7,8.7,12.9,8.7,21.5c0,8.6-2.9,15.7-8.7,21.5
				c-5.8,5.7-13.2,8.6-22.1,8.6c-9,0-16.4-2.9-22.2-8.6c-5.8-5.7-8.7-12.9-8.7-21.5c0-8.6,2.9-15.7,8.7-21.5
				C484.2,206.2,491.6,203.3,500.6,203.3 M500.6,255c5.8,0,10.6-1.9,14.6-5.7c4.2-4,6.3-9.3,6.3-15.9s-2.1-11.8-6.3-15.9
				c-4-3.8-8.8-5.7-14.6-5.7c-5.8,0-10.6,1.9-14.6,5.7c-4.3,4-6.4,9.3-6.4,15.9s2.1,11.8,6.4,15.9C490,253.1,494.8,255,500.6,255
				 M500.6,200.4c-9.7,0-17.9,3.2-24.2,9.4c-6.3,6.3-9.5,14.2-9.5,23.5c0,9.3,3.2,17.3,9.5,23.5c6.3,6.2,14.5,9.4,24.2,9.4
				c9.7,0,17.9-3.2,24.2-9.4c6.3-6.3,9.5-14.2,9.5-23.5c0-9.3-3.2-17.3-9.5-23.5C518.5,203.6,510.3,200.4,500.6,200.4L500.6,200.4z
				 M500.6,252.1c-5,0-9.2-1.6-12.7-4.9c-3.7-3.5-5.5-8-5.5-13.8c0-5.8,1.8-10.3,5.5-13.8c3.5-3.3,7.6-5,12.7-5
				c5,0,9.1,1.6,12.6,4.9c3.7,3.5,5.5,8,5.5,13.8c0,5.8-1.8,10.3-5.4,13.8C509.8,250.5,505.6,252.1,500.6,252.1L500.6,252.1z"/>
		</g>
		<g>
			<path class="st1" d="M915.1,262.8c-0.4,0-0.8-0.2-1-0.4l-24.6-24.8v23.8c0,0.8-0.6,1.4-1.4,1.4h-9.3c-0.8,0-1.4-0.6-1.4-1.4v-56
				c0-0.8,0.6-1.4,1.4-1.4h9.3c0.8,0,1.4,0.6,1.4,1.4v21.5l21.6-22.5c0.3-0.3,0.6-0.4,1-0.4h12.4c0.6,0,1.1,0.4,1.3,0.9
				c0.2,0.5,0.1,1.2-0.3,1.6l-26.1,25.7l29.2,28.2c0.4,0.4,0.6,1,0.3,1.6c-0.2,0.5-0.7,0.9-1.3,0.9H915.1z"/>
			<path class="st1" d="M924.5,205.4l-27.1,26.8l30.2,29.3h-12.5l-27-27.3v27.3h-9.3v-56h9.3v25.1l24-25.1H924.5 M924.5,202.5h-12.4
				c-0.8,0-1.5,0.3-2.1,0.9L891,223.3v-17.9c0-1.6-1.3-2.9-2.9-2.9h-9.3c-1.6,0-2.9,1.3-2.9,2.9v56c0,1.6,1.3,2.9,2.9,2.9h9.3
				c1.6,0,2.9-1.3,2.9-2.9v-20.3l22.1,22.3c0.5,0.5,1.3,0.9,2,0.9h12.5c1.2,0,2.2-0.7,2.7-1.8s0.2-2.3-0.7-3.2l-28.1-27.2l25-24.7
				c0.8-0.8,1.1-2.1,0.6-3.1S925.7,202.5,924.5,202.5L924.5,202.5z M924.5,208.2L924.5,208.2L924.5,208.2L924.5,208.2z"/>
		</g>
	</g>
</g>
</svg>
