<svg width="15" height="15" viewBox="0 0 15 15" fill="none" xmlns="http://www.w3.org/2000/svg">
	<circle cx="7.5" cy="7.5" r="7" stroke="#0F75BC"/>
	<path d="M6.64081 9.12059V9.02145C6.64339 8.56133 6.68735 8.19527 6.77269 7.92326C6.86062 7.65126 6.98474 7.43263 7.14507 7.2674C7.3054 7.09962 7.50065 6.94582 7.7308 6.80601C7.88854 6.70941 8.02948 6.60391 8.15361 6.48951C8.28032 6.37258 8.37988 6.24293 8.45229 6.10057C8.5247 5.95567 8.5609 5.79425 8.5609 5.6163C8.5609 5.41548 8.51306 5.24134 8.41738 5.0939C8.3217 4.94646 8.1924 4.83206 8.02948 4.75072C7.86915 4.66937 7.68942 4.62869 7.4903 4.62869C7.3067 4.62869 7.13214 4.6681 6.96664 4.7469C6.80372 4.82316 6.66796 4.9401 6.55935 5.09771C6.45332 5.25278 6.39385 5.44979 6.38092 5.68875H5C5.01293 5.20575 5.13189 4.80156 5.35687 4.47617C5.58443 4.15078 5.88441 3.90674 6.25679 3.74404C6.63176 3.58135 7.04551 3.5 7.49806 3.5C7.99198 3.5 8.42643 3.58516 8.8014 3.75548C9.17895 3.9258 9.47246 4.16857 9.68192 4.48379C9.89397 4.79647 10 5.16762 10 5.59724C10 5.88703 9.95216 6.14633 9.85648 6.37512C9.76338 6.60391 9.6302 6.80728 9.45694 6.98522C9.28368 7.16317 9.0781 7.32205 8.84019 7.46187C8.63072 7.58897 8.45875 7.72116 8.32428 7.85844C8.1924 7.99571 8.09413 8.15713 8.02948 8.34271C7.96742 8.52574 7.93509 8.75199 7.93251 9.02145V9.12059H6.64081ZM7.31575 11.5C7.08301 11.5 6.8826 11.4187 6.71451 11.256C6.54642 11.0933 6.46237 10.895 6.46237 10.6611C6.46237 10.4323 6.54642 10.2366 6.71451 10.0739C6.8826 9.91119 7.08301 9.82984 7.31575 9.82984C7.5459 9.82984 7.74502 9.91119 7.91311 10.0739C8.08379 10.2366 8.16912 10.4323 8.16912 10.6611C8.16912 10.8162 8.12904 10.9573 8.04888 11.0844C7.9713 11.2115 7.86786 11.3132 7.73856 11.3894C7.61184 11.4631 7.47091 11.5 7.31575 11.5Z" fill="#0F75BC"/>
</svg>
