<svg width="14" height="15" viewBox="0 0 14 15" fill="none" xmlns="http://www.w3.org/2000/svg">
	<mask id="path-1-inside-1_100_399" fill="white">
		<path fill-rule="evenodd" clip-rule="evenodd" d="M9.54092 8.31541C10.6975 7.4908 11.4546 6.11861 11.4546 4.56521C11.4546 2.04391 9.46023 0 7.00005 0C4.53987 0 2.5455 2.04391 2.5455 4.56521C2.5455 6.1186 3.30254 7.49078 4.45914 8.31539C3.56444 8.67258 2.74235 9.21801 2.05025 9.92729C0.737498 11.2727 0 13.0974 0 15L7 15H14C14 13.0974 13.2625 11.2727 11.9497 9.92729C11.2577 9.21802 10.4356 8.67261 9.54092 8.31541Z"/>
	</mask>
	<path d="M9.54092 8.31541L8.96041 7.50116L7.46855 8.56478L9.17014 9.24413L9.54092 8.31541ZM4.45914 8.31539L4.82992 9.24411L6.53151 8.56478L5.03966 7.50115L4.45914 8.31539ZM2.05025 9.92729L2.76598 10.6257L2.05025 9.92729ZM0 15H-1V16H-2.72478e-07L0 15ZM7 15L7 16H7V15ZM14 15V16H15V15H14ZM11.9497 9.92729L12.6655 9.22891L11.9497 9.92729ZM10.4546 4.56521C10.4546 5.78805 9.85981 6.85994 8.96041 7.50116L10.1214 9.12966C11.5353 8.12167 12.4546 6.44918 12.4546 4.56521H10.4546ZM7.00005 1C8.88495 1 10.4546 2.57292 10.4546 4.56521H12.4546C12.4546 1.5149 10.0355 -1 7.00005 -1V1ZM3.5455 4.56521C3.5455 2.57292 5.11515 1 7.00005 1V-1C3.96459 -1 1.5455 1.5149 1.5455 4.56521H3.5455ZM5.03966 7.50115C4.14028 6.85992 3.5455 5.78804 3.5455 4.56521H1.5455C1.5455 6.44916 2.4648 8.12164 3.87861 9.12963L5.03966 7.50115ZM4.08836 7.38667C3.06389 7.79567 2.12428 8.41954 1.33452 9.22891L2.76598 10.6257C3.36042 10.0165 4.06499 9.5495 4.82992 9.24411L4.08836 7.38667ZM1.33452 9.22891C-0.162957 10.7636 -1 12.84 -1 15H1C1 13.3548 1.63795 11.7817 2.76598 10.6257L1.33452 9.22891ZM-2.72478e-07 16L7 16L7 14L2.72478e-07 14L-2.72478e-07 16ZM7 16H14V14H7V16ZM15 15C15 12.84 14.163 10.7636 12.6655 9.22891L11.234 10.6257C12.362 11.7817 13 13.3548 13 15H15ZM12.6655 9.22891C11.8757 8.41956 10.9362 7.7957 9.91171 7.38669L9.17014 9.24413C9.93505 9.54952 10.6396 10.0165 11.234 10.6257L12.6655 9.22891Z" fill="#0F75BC" mask="url(#path-1-inside-1_100_399)"/>
</svg>
